<svg id="Livello_1" data-name="Livello 1" xmlns="http://www.w3.org/2000/svg" viewBox="0 0 907.62 865.4"><defs><style>.cls-1{fill:#f3f3f3;}.cls-2{fill:#e1e1e1;}.cls-3{fill:#fd8369;}.cls-4{fill:#de8e68;}.cls-5{fill:#6fc9ce;}.cls-6{fill:#febf92;}.cls-7{fill:#fed892;}.cls-8,.cls-9{fill:none;stroke:#000;stroke-miterlimit:10;}.cls-8{stroke-width:0.95px;}.cls-9{stroke-linecap:round;stroke-width:1.07px;}.cls-10{fill:#74d5de;}.cls-11{fill:#fecc92;}.cls-12{fill:#d38466;}</style></defs><path class="cls-1" d="M109.9,43V760.3H837.6V43ZM436.4,490H145.5V332.4H436.4Zm0-195H145.5V137.4H436.4ZM798.1,672.3H507.2V332.4H798.1Z" transform="translate(-31.39 -43)"/><rect class="cls-2" x="78.51" width="727.7" height="54.6"/><circle class="cls-3" cx="116.91" cy="28" r="8.6"/><circle class="cls-3" cx="144.61" cy="28" r="8.6"/><circle class="cls-3" cx="172.31" cy="28" r="8.6"/><rect class="cls-2" x="455.51" y="105.8" width="399.4" height="15.2"/><rect class="cls-2" x="455.51" y="148.7" width="399.4" height="15.2"/><rect class="cls-2" x="455.51" y="191.6" width="399.4" height="15.2"/><rect class="cls-2" x="455.51" y="234.5" width="399.4" height="15.2"/><g id="Foreground"><rect class="cls-4" x="658.51" y="713.2" width="15.3" height="23.2"/><rect class="cls-4" x="838.81" y="811.2" width="15.3" height="23.2"/><path class="cls-5" d="M802.2,541.5c-18.5,0-101.1,82.1-108.3,95.9s-5.1,121.9-5.1,121.9l17.8,3.4L735.5,662c12.6-1.5,65.6-12.9,93-35s-2.6-71.7-2.6-71.7Z" transform="translate(-31.39 -43)"/><path class="cls-4" d="M771.3,430c-9.1,8.1-27.3,28.4-28.8,31-4.6-2.2-52.5-27.4-56.1-29s-11.2-14.3-13.8-14.3c-1.5,0-2.9,2.9-2.9,4.9a11,11,0,0,0,2.6,7.1c-3.4-.5-33.4-2.8-33.4-.8,0,5.2,33.6,12.1,36.2,13.5s57.3,52,76.3,52c7.4,0,40.1-22.2,40.1-24.6,3.1-2.1,7.9-5.2,7.9-5.2V447L788,438.7C788,438.6,773.1,428.4,771.3,430Z" transform="translate(-31.39 -43)"/><path class="cls-6" d="M770.1,424.2c2-16.2,39.3-53,56.4-36.6,14.9,14.3-12.1,65.4-19,67.4C799.7,455.8,769.6,435.2,770.1,424.2Z" transform="translate(-31.39 -43)"/><path class="cls-7" d="M883.9,390.5c19-8,45.6,36,42.6,52,0,7-39,22-45,18S864.9,398.5,883.9,390.5Z" transform="translate(-31.39 -43)"/><path class="cls-8" d="M801.7,449.6" transform="translate(-31.39 -43)"/><path class="cls-9" d="M854.7,340.5" transform="translate(-31.39 -43)"/><path class="cls-10" d="M807.3,548.6l62.8,305.5h16.1l5.7-272.5c0-4.7-.4-34.3-.4-38.1C873.3,548.8,834.5,553,807.3,548.6Z" transform="translate(-31.39 -43)"/><polygon points="838.81 834.4 854.11 834.4 854.11 851 811.91 851 838.81 834.4"/><polygon points="658.51 736.4 673.81 736.4 673.81 753 631.61 753 658.51 736.4"/><rect class="cls-3" x="566.61" y="753" width="182.1" height="106.6"/><polygon class="cls-3" points="109.31 865.4 39.01 864.6 14.41 774.3 132.31 774.3 109.31 865.4"/><path class="cls-11" d="M842.3,367c47,0,63.4,39.1,63.4,51.8S891,509,891.6,543.5c.1,5.7-84.3,10.8-95.8,2.5C790.4,542.1,778.8,367,842.3,367Z" transform="translate(-31.39 -43)"/><path class="cls-4" d="M926.5,442.5C939.8,462.9,939,509.9,939,517s-49.6,70.9-53.9,70.9c-2.6-2.6-9.8-10.5-9.8-12.9,2.3-4.2,31.8-68.7,37.1-73.3-2.4-2.9-23.5-36-24.4-41.5C906.5,457.1,924.4,449.3,926.5,442.5Z" transform="translate(-31.39 -43)"/><path class="cls-7" d="M926.5,442.5c3-16-21.3-62.4-42.6-52-18.5,9.1-8.4,66-2.4,70C888.7,463.6,923.7,453.1,926.5,442.5Z" transform="translate(-31.39 -43)"/><path class="cls-12" d="M830.3,357.4c-1,3.1-1.5,12.7-.4,17,.1.2,20,1.7,22.2-1.8.1-2.9,4.9-28.7,11.4-36.7.6-.9-.7-3.4-.7-3.4l-23.1,9.6-9.4,15.3" transform="translate(-31.39 -43)"/><path class="cls-3" d="M860.2,334.7a6.53,6.53,0,0,0,5.1,2.9c3.8,0,12.6-3.5,12.6-16,0-9-8.8-13.6-8.8-17.9,0-4.1,1.1-4.2,1.1-7.6,0-1.7-1.7-7.3-7-7.3-3,0-4.1,2.5-7.1,2.5-3.3,0-6.3-6.4-11.3-6.4-3.4,0-6.6,3.2-10.2,3.2-4.1,0-6.9-6.1-12.6-6.1-5.9,0-8,5.3-10.3,5.3-2.9,0-3.4-.8-6.3-.8-1.8,0-7.3,3.2-7.3,9,0,4.1,1.7,10.8,10.2,10.8,5,0,7.8,7.9,12.2,7.9,1.7,0,3.2-1.4,3.6-.7,1.7,3,5.2,11.2,5.2,11.2l15.9,8.9Z" transform="translate(-31.39 -43)"/><path class="cls-4" d="M856.7,330.6c0,1.4-.5,1.7-2.6,1.7a2.89,2.89,0,0,1-2.4-2.7c0-3.3,2.4-4,2.4-8.3,0-7.3-19.1-11.1-25.8-14.9h0a17.56,17.56,0,0,0-4.8,9l-4.3,22.1a17.69,17.69,0,0,0,34.7,6.9l.7-3.8h0a5.16,5.16,0,0,0,1.1.2c2.5,0,4.4-2.3,4.4-5.1C860.3,333.1,856.7,328.5,856.7,330.6Z" transform="translate(-31.39 -43)"/><path class="cls-5" d="M114.8,781.9C94.5,646,44.8,574.7,38.5,577.4c-8.9,3.9-11.5,80.2,4.4,159,.4,0,.7-.1,1.1-.1a8.28,8.28,0,0,1,8.3,8.3,7.9,7.9,0,0,1-.9,3.8A8.32,8.32,0,0,1,49.3,764a390.56,390.56,0,0,0,17.6,52.9h44A67.69,67.69,0,0,0,114.8,781.9Z" transform="translate(-31.39 -43)"/><path class="cls-10" d="M232.3,637.8c-12.3,0-25.5,35.4-40.1,35.4-3.2,0-5.3-3.5-5.3-6.8S197,628,197,610.9a38.29,38.29,0,0,0-.3-4.7,10.75,10.75,0,0,1-5.6,1.6,10.91,10.91,0,0,1-2.2-21.6,28,28,0,0,0-22.8-11.1c-12.9,0-31.1,11.5-31.1,29.3,0,5,1.5,17.7,1.5,29.2,0,65.2-51.1,75-51.1,147.2,0,15.2,8.4,31.9,10.9,36,0,0,42.8.5,46.9.5s37.4-55.6,41.2-61.5c14.5-22.4,62.7-47,62.7-100.5C247.1,647.8,244.4,637.8,232.3,637.8Z" transform="translate(-31.39 -43)"/></g></svg>