<svg id="Livello_1" data-name="Livello 1" xmlns="http://www.w3.org/2000/svg" viewBox="0 0 846.63 300.72"><defs><style>.cls-1{fill:#fff;}.cls-2{fill:#285997;}.cls-3{fill:#1d3b83;}.cls-4{fill:#4782b0;}.cls-5{fill:#6dbee5;}.cls-6{fill:#58c7ed;}.cls-7{fill:#63c4ee;}.cls-8{fill:#4ba2cd;}.cls-9{fill:#3d63a1;}.cls-10{fill:#254888;}.cls-11{fill:#1f4889;}.cls-12{fill:#3c78a0;}.cls-13{fill:#55abd5;}.cls-14{fill:#2a688b;}.cls-15{fill:#103077;}.cls-16{fill:#2c5d80;}.cls-17{fill:#34639f;}.cls-18{fill:#367ea1;}.cls-19{fill:#4ea1c7;}.cls-20{fill:#336299;}.cls-21{fill:#1e4785;}.cls-22{fill:#264484;}.cls-23{fill:#388abe;}.cls-24{fill:#63aad1;}.cls-25{fill:#1e2970;}.cls-26{fill:#26397c;}.cls-27{fill:#66bbe8;}.cls-28{fill:#0d4484;}.cls-29{fill:#3e78ba;}.cls-30{fill:#273583;}.cls-31{fill:#15337b;}.cls-32{fill:#65bae0;}.cls-33{fill:#21709e;}.cls-34{fill:#77b0ee;}.cls-35{fill:#285e93;}.cls-36{fill:#214c8a;}.cls-37{fill:#4066a2;}.cls-38{fill:#61a1e1;}.cls-39{fill:#5dcafb;}.cls-40{fill:#50c6e7;}.cls-41{fill:#6ad4f6;}.cls-42{fill:#1d4588;}.cls-43{fill:#58c4eb;}.cls-44{fill:#124a84;}.cls-45{fill:#5fc8ef;}.cls-46{fill:#0f5896;}.cls-47{fill:#242c72;}.cls-48{fill:#202f73;}.cls-49{fill:#21317b;}.cls-50{fill:#59c8ec;}.cls-51{fill:#29538d;}.cls-52{fill:#58b2df;}.cls-53{fill:#204a80;}.cls-54{fill:#5bafd1;}.cls-55{fill:#144a90;}.cls-56{fill:#58bde0;}.cls-57{fill:#1e367b;}.cls-58{fill:#22297a;}.cls-59{fill:#1a2b67;}.cls-60{fill:#235a98;}.cls-61{fill:#204b91;}.cls-62{fill:#265c98;}.cls-63{fill:#53bdde;}.cls-64{fill:#2667a0;}.cls-65{fill:#70aee4;}.cls-66{fill:#45adc9;}.cls-67{fill:#67c8f1;}.cls-68{fill:#21599a;}.cls-69{fill:#1e6da8;}.cls-70{fill:#2977a9;}.cls-71{fill:#4893cd;}.cls-72{fill:#065e94;}.cls-73{fill:#5cc3eb;}.cls-74{fill:#5bcbef;}.cls-75{fill:#387bb0;}.cls-76{fill:#3e8dba;}.cls-77{fill:#2583bd;}.cls-78{fill:#257aab;}.cls-79{fill:#2573a2;}.cls-80{fill:#5aa8e1;}.cls-81{fill:#53bfe3;}.cls-82{fill:#52b5d3;}.cls-83{fill:#5bccef;}.cls-84{fill:#0b6695;}.cls-85{fill:#214e8c;}.cls-86{fill:#2267a1;}.cls-87{fill:#75c6f5;}.cls-88{fill:#5adffa;}.cls-89{fill:#268fc0;}.cls-90{fill:#5acce9;}.cls-91{fill:#51c8e5;}.cls-92{fill:#2871ac;}.cls-93{fill:#2478b1;}.cls-94{fill:#51a4d9;}.cls-95{fill:#2076ad;}.cls-96{fill:#1a75a7;}.cls-97{fill:#338bbe;}.cls-98{fill:#2d69a0;}.cls-99{fill:#5aa3d6;}.cls-100{fill:#54bce1;}.cls-101{fill:#0c6591;}.cls-102{fill:#236ea3;}.cls-103{fill:#2896ca;}.cls-104{fill:#57ccee;}.cls-105{fill:#2688cb;}.cls-106{fill:#278ec4;}.cls-107{fill:#2c74ae;}.cls-108{fill:#60ddfc;}.cls-109{fill:#2d79b8;}.cls-110{fill:#5ab8ee;}.cls-111{fill:#2d8ebd;}.cls-112{fill:#55b0de;}.cls-113{fill:#5bdef6;}.cls-114{fill:#4cc8df;}.cls-115{fill:#57c8eb;}.cls-116{fill:#56d9f8;}.cls-117{fill:#227faf;}.cls-118{fill:#5be7fa;}.cls-119{fill:#2999cc;}.cls-120{fill:#277cb4;}.cls-121{fill:#62e0fd;}.cls-122{fill:#66dafb;}.cls-123{fill:#38c2db;}.cls-124{fill:#3fc8e2;}.cls-125{fill:#30bad2;}.cls-126{fill:none;stroke:#fff;stroke-miterlimit:10;stroke-width:6px;}</style></defs><polygon class="cls-1" points="0 268.22 44 268.22 56 177.22 92 268.22 110 268.22 148 177.22 159 268.22 202 268.22 178 108.22 135 108.22 101 188.22 70 108.22 28 108.22 0 268.22"/><path class="cls-1" d="M1012,567" transform="translate(-651.5 -329.28)"/><path class="cls-1" d="M1012,567" transform="translate(-651.5 -329.28)"/><path class="cls-1" d="M1011.81,500.27c0-15-.29-24.89-.91-33.69h29.71l1.26,18.92h.85a33.36,33.36,0,0,1,37.41-20.63v29.88a47.12,47.12,0,0,0-9.35-.88c-12.7,0-21.38,6.19-23.7,16.13a34.43,34.43,0,0,0-.64,7.07v51.72h-34.63Z" transform="translate(-651.5 -329.28)"/><path class="cls-1" d="M1179.8,566.23c-6.22,2.65-17.82,4.75-31,4.75-35.94,0-58.83-20.21-58.83-52.31,0-29.88,22.25-54.31,63.59-54.31,9.15,0,19.17,1.52,26.39,4L1174.59,492c-4.17-1.71-10.24-3.25-19.35-3.25-18.28,0-30,11.92-29.87,28.64,0,18.77,13.71,28.73,30.44,28.73a55.51,55.51,0,0,0,19.92-3.33Z" transform="translate(-651.5 -329.28)"/><path class="cls-1" d="M964.74,584.16c-13.15,6-24.53,7.87-40.13,7.87-36.4,0-68.51-26-68.51-69,0-44.62,32.65-83.41,82.08-83.41,38.71,0,66.37,26.57,66.37,63.32,0,32-18,52.16-41.67,52.16-10.31,0-17.74-5.45-18.81-16.93h-.55c-6.87,11.09-16.58,16.93-28.31,16.93-14.22,0-24.65-10.64-24.65-28.64,0-26.74,19.88-50.84,51.43-50.84,9.73,0,20.68,2.34,26.08,5.28l-6.54,40.59c-2.13,12.84-.62,18.83,5.59,19,9.41.32,21.15-11.68,21.15-36.9,0-28.58-18.42-50.53-52.37-50.53-33.66,0-63,26.1-63,68,0,36.68,23.43,57.37,56.08,57.37,11.16,0,23.12-2.45,31.9-6.86Zm-19.37-90.37a25.34,25.34,0,0,0-6.82-.93c-14.5,0-25.86,14.3-25.86,31,0,8.31,3.67,13.54,10.83,13.54,8.16,0,16.71-10.26,18.63-22.9Z" transform="translate(-651.5 -329.28)"/><path class="cls-1" d="M1329.38,496.21c0-12.73-.43-23.49-.91-32.65h30l1.6,14.17h.72c4.49-6.59,15.81-16.46,34.37-16.46,22.72,0,39.81,13.92,39.81,44v60.51h-34.63V509.13c0-13.17-5.11-22.19-17.58-22.19-9.52,0-15.15,6.13-17.54,12a21.2,21.2,0,0,0-1.21,7.86v59h-34.62Z" transform="translate(-651.5 -329.28)"/><path class="cls-1" d="M1498.13,435.19c0,8.84-7.07,15.87-18.58,15.87-11,0-18-7-18-15.87,0-9.08,7.21-15.91,18.3-15.91S1498,426.07,1498.13,435.19Zm-35.6,130.59V463.56h34.63V565.78Z" transform="translate(-651.5 -329.28)"/><polygon class="cls-1" points="20.5 280.72 845.5 280.72 845.5 300.72 49.5 300.72 20.5 280.72"/><path class="cls-1" d="M1402.21,575.92h5.08v18.22h8.94v4.26h-14Z" transform="translate(-651.5 -329.28)"/><path class="cls-1" d="M1428.48,598.4l-.3-1.63h-.11a5.85,5.85,0,0,1-4.66,2,5,5,0,0,1-5.27-5c0-4.25,3.8-6.27,9.57-6.26v-.21c0-.86-.46-2.1-3-2.1a9.41,9.41,0,0,0-4.5,1.22l-.93-3.25a13.18,13.18,0,0,1,6.34-1.46c5.43,0,7.15,3.21,7.15,7v5.69a23.41,23.41,0,0,0,.26,4Zm-.61-7.72c-2.67,0-4.74.63-4.74,2.57a1.83,1.83,0,0,0,2,2,2.75,2.75,0,0,0,2.62-1.87,3.1,3.1,0,0,0,.1-.87Z" transform="translate(-651.5 -329.28)"/><path class="cls-1" d="M1442.19,577.42v4.66h3.65v3.74h-3.65v5.91c0,2,.49,2.88,2,2.88a6.9,6.9,0,0,0,1.51-.15l0,3.85a10.62,10.62,0,0,1-3.29.44,5.31,5.31,0,0,1-3.82-1.42c-.94-1-1.41-2.52-1.41-4.84v-6.67h-2.16v-3.74h2.16v-3.51Z" transform="translate(-651.5 -329.28)"/><path class="cls-1" d="M1454,577.55a2.52,2.52,0,0,1-2.73,2.53,2.54,2.54,0,1,1,2.73-2.53Zm-5.23,20.85V582.08h5.08V598.4Z" transform="translate(-651.5 -329.28)"/><path class="cls-1" d="M1457.9,587.29c0-2-.07-3.75-.14-5.21h4.4l.24,2.26h.1a5.92,5.92,0,0,1,5-2.63c3.33,0,5.84,2.22,5.84,7v9.66h-5.08v-9c0-2.1-.75-3.54-2.58-3.54a2.75,2.75,0,0,0-2.58,1.92A3.6,3.6,0,0,0,1463,589v9.42h-5.08Z" transform="translate(-651.5 -329.28)"/><path class="cls-1" d="M1486.71,598.4l-.29-1.63h-.11a5.86,5.86,0,0,1-4.66,2,5,5,0,0,1-5.28-5c0-4.25,3.81-6.27,9.58-6.26v-.21c0-.86-.47-2.1-3-2.1a9.44,9.44,0,0,0-4.5,1.22l-.93-3.25a13.21,13.21,0,0,1,6.34-1.46c5.43,0,7.15,3.21,7.15,7v5.69a24.51,24.51,0,0,0,.26,4Zm-.61-7.72c-2.67,0-4.73.63-4.73,2.57a1.83,1.83,0,0,0,2,2,2.78,2.78,0,0,0,2.63-1.87,3.52,3.52,0,0,0,.09-.87Z" transform="translate(-651.5 -329.28)"/><path class="cls-1" d="M687.19,392v32.86h-2.93V392Z" transform="translate(-651.5 -329.28)"/><path class="cls-1" d="M695.74,423.15a2.37,2.37,0,0,1,2.57-2.29,2.32,2.32,0,0,1,2.51,2.29,2.39,2.39,0,0,1-2.57,2.25A2.33,2.33,0,0,1,695.74,423.15Z" transform="translate(-651.5 -329.28)"/><path class="cls-1" d="M711.1,392v32.86h-2.93V392Z" transform="translate(-651.5 -329.28)"/><path class="cls-1" d="M719.64,423.15a2.37,2.37,0,0,1,2.57-2.29,2.31,2.31,0,0,1,2.51,2.29,2.39,2.39,0,0,1-2.57,2.25A2.34,2.34,0,0,1,719.64,423.15Z" transform="translate(-651.5 -329.28)"/><path class="cls-1" d="M730.7,421a20.76,20.76,0,0,0,10,2.44c6.52,0,10.46-2.83,10.46-6.88,0-3.75-2.33-5.9-9.08-7.65-8.07-2.1-11.3-4.78-11.3-9.07,0-4.83,5.08-8.43,12.49-8.43a20.8,20.8,0,0,1,9,1.65l-1.14,2a17.45,17.45,0,0,0-8-1.7c-7.23,0-9.5,3.56-9.5,6.14,0,3.51,2.57,5.51,9.08,7.21,7.35,2,11.3,4.29,11.3,9.61,0,4.53-4.06,9.12-13.69,9.12-3.82,0-8.31-1-10.76-2.44Z" transform="translate(-651.5 -329.28)"/><path class="cls-1" d="M760.29,423.15a2.37,2.37,0,0,1,2.57-2.29,2.32,2.32,0,0,1,2.51,2.29,2.39,2.39,0,0,1-2.57,2.25A2.33,2.33,0,0,1,760.29,423.15Z" transform="translate(-651.5 -329.28)"/><path class="cls-2" d="M1299.16,565.09c-15.75,17.56-43.3,24.36-65.59,16.2-1.59-1.31-3.52-2.55-1-4.71,3.32-1.76,7-1.16,10.51-1.51,9-.22,18,.64,26.88-1,9.86.45,17.57-4.63,25.23-9.82A3.85,3.85,0,0,1,1299.16,565.09Z" transform="translate(-651.5 -329.28)"/><path class="cls-3" d="M1315.21,537.51l-1.77,2.27c-2.93,4.43-8.14,6.31-11.57,10.21-1.5.86-3,1.5-4.82.91a5.21,5.21,0,0,1-1.29-2.18,8.92,8.92,0,0,1,.11-3.78c.69-2.36,1-4.86,2.46-7,2.54-1.79,6.45-1.89,7.21-5.85.1-.79.24-1.58.37-2.37.83-4,1.52-8-.72-11.77a6.8,6.8,0,0,1,.16-3.92c1.33-2.49,2.64-5,5.41-6.23a5.81,5.81,0,0,1,4.36.55c4.9,7.08,2.76,14.81,2.12,22.41l0-.07C1313.82,532.18,1315.7,535.19,1315.21,537.51Z" transform="translate(-651.5 -329.28)"/><path class="cls-4" d="M1222.74,460.42c15.88-8.19,32.27-10.23,49.33-4.06-1.2,2.22-3.36,3-5.59,3.64a14.21,14.21,0,0,1-2.74.43,24.73,24.73,0,0,1-6.92-.61c-7.87-2.41-15.21.56-22.69,2.18-3.72.8-7.2,2.93-11.23,2.15A2.46,2.46,0,0,1,1222.74,460.42Z" transform="translate(-651.5 -329.28)"/><path class="cls-5" d="M1301.21,548.83c2.62-5,7.65-6.71,12.23-9.05.08,7.48-1.9,14-8.66,18.26a5.26,5.26,0,0,1-3.36-2C1300.29,553.64,1298.34,551.3,1301.21,548.83Z" transform="translate(-651.5 -329.28)"/><path class="cls-6" d="M1187.12,509.14c.68-3.2.5-6.63,2.54-9.47,2.22-.08,3.69-3.29,6.36-1.52a15,15,0,0,1,2.46,5.35c1.3,4.13-1.45,7.53-2,11.34a3.92,3.92,0,0,1-7.18,2.12C1187.11,514.76,1187.43,511.86,1187.12,509.14Z" transform="translate(-651.5 -329.28)"/><path class="cls-7" d="M1213.83,571.88a9.68,9.68,0,0,1-5.9-4.63c-.28-4.63-.47-9.26-.37-13.89.46-4.1-.91-7.86-2.25-11.62-.19-1.85,0-3.52,2-4.33,5,1.59,6.39,5.71,7.18,10.18a36.51,36.51,0,0,0,3.22,11,5.49,5.49,0,0,1,.25,2.31,23.87,23.87,0,0,0-1.37,4.19,13.83,13.83,0,0,1-.37,2.12C1215.7,568.88,1215.29,570.66,1213.83,571.88Z" transform="translate(-651.5 -329.28)"/><path class="cls-8" d="M1222.74,460.42l-.15,3c-1.82,1.06-2.27,2.46-1.06,4.28a16.23,16.23,0,0,1-3.72,7c-2.15.83-4.45.68-6.69,1-2.06-.32-3.9-1-5-3C1210.3,466.75,1216.32,463.32,1222.74,460.42Z" transform="translate(-651.5 -329.28)"/><path class="cls-9" d="M1215.09,565.29c-1.9-2.31-1.37-3.66,1.62-4,1.32-1.06,2.25-.24,3.18.63,1.95,3,3.46,6.26,5.7,9.08,1.66,2.58,4.61,4,6.12,6.73l1.86,3.6a25.73,25.73,0,0,1-12.76-5.24,29.45,29.45,0,0,1-3.17-4.84C1215.6,569.74,1217.73,566.51,1215.09,565.29Z" transform="translate(-651.5 -329.28)"/><path class="cls-10" d="M1193.87,548.68c-2.93-5.63-5.25-11.47-6-17.84a4.52,4.52,0,0,1-.17-3.74c5.2-.65,6.77,2.92,7.4,6.86a83.16,83.16,0,0,0,1.88,8.73,10.71,10.71,0,0,1,.15,2.65C1196.71,547.09,1196.36,548.93,1193.87,548.68Z" transform="translate(-651.5 -329.28)"/><path class="cls-11" d="M1193.87,548.68l1.61-3.6c3.73-.74,4.4,3,6.57,4.49,2,2.88,4.85,5.06,7,7.85-.3,1.93,1,4.53-1.22,5.63s-3.52-1.34-5-2.61-2.22-3.5-4.35-4.2Z" transform="translate(-651.5 -329.28)"/><path class="cls-12" d="M1290.26,465.11c7.14,2.95,9.57,10.78,15.57,14.92a5,5,0,0,1-3.95,2.5,15.45,15.45,0,0,1-9.21-7.14c.09-3.23-2.24-5.51-3.29-8.3A2,2,0,0,1,1290.26,465.11Z" transform="translate(-651.5 -329.28)"/><path class="cls-13" d="M1195.45,498.05c-2.1-.08-2.88,4.56-5.79,1.62a40,40,0,0,1,9-18.56,3.41,3.41,0,0,1,1.69,2c.91,4.3-2,7.69-2.75,11.61A6,6,0,0,1,1195.45,498.05Z" transform="translate(-651.5 -329.28)"/><path class="cls-12" d="M1266.23,458.36l5.84-2a76.25,76.25,0,0,1,18.19,8.75c-.22.26-.43.52-.64.79-1.48,1.38-3.26,1.48-5.14,1.23-4.62-1.42-8.71-4.36-13.7-4.77C1268.73,461.63,1266,461.66,1266.23,458.36Z" transform="translate(-651.5 -329.28)"/><path class="cls-14" d="M1311.42,489.13c3,5,5.26,10.29,5.61,16.21a4.18,4.18,0,0,1-4.69,1,3.85,3.85,0,0,1-1.69-1.81c-.33-4.15-2.37-8-2.41-12.21C1308.66,490.63,1309,488.86,1311.42,489.13Z" transform="translate(-651.5 -329.28)"/><path class="cls-15" d="M1190,516.26l3.55,2c2.19,2.29,5,4.08,6.23,7.16a5.56,5.56,0,0,1-2.61,5.32c-4.14-.29-5.11-5-8.65-6.14a7.76,7.76,0,0,1-1.8-3.18l-.1-3.18C1187.37,516.92,1187.81,515.1,1190,516.26Z" transform="translate(-651.5 -329.28)"/><path class="cls-16" d="M1311.94,505.25l5.09.09c2.27,8.46,3.16,16.94.21,25.45-1.48-7.31,2.94-15.69-4-22C1312.1,507.85,1310.44,507.11,1311.94,505.25Z" transform="translate(-651.5 -329.28)"/><path class="cls-17" d="M1198.49,556.24c4.58-.91,4.7,4.64,8.56,5.64,1.83-1.62.86-3.94,1-6a2.76,2.76,0,0,1-.38-3.38,1.64,1.64,0,0,1,2.16-.22c-.22,5,1.6,10.33-1.86,15A35.79,35.79,0,0,1,1198.49,556.24Z" transform="translate(-651.5 -329.28)"/><path class="cls-18" d="M1311.42,489.13c-.58,1.26-1.17,2.52-1.76,3.78a2,2,0,0,1-2.1,0,24.77,24.77,0,0,1-2.81-3.55c-1.34-2.26-3.38-4.32-2.2-7.32a3.34,3.34,0,0,1,3.28-2A20.82,20.82,0,0,1,1311.42,489.13Z" transform="translate(-651.5 -329.28)"/><path class="cls-19" d="M1199.09,483.65c-.13-.84-.25-1.69-.38-2.54,1.31-2.74,3-5.21,5.74-6.68a3.85,3.85,0,0,1,2.82,4.05C1205.73,482.06,1203.37,484.37,1199.09,483.65Z" transform="translate(-651.5 -329.28)"/><path class="cls-20" d="M1219.05,570.44c2.2,1.36,1.76,3.56,1.76,5.61a13.25,13.25,0,0,1-7-4.17c.16-1.88-.44-3.94,1.3-5.45C1216.75,567.46,1216.82,570,1219.05,570.44Z" transform="translate(-651.5 -329.28)"/><path class="cls-21" d="M1315.21,537.51c-1-2.33-4.64-3.84-2.94-6.86,1-1.82,3.24.36,4.94.07C1317.37,533.22,1317.51,535.72,1315.21,537.51Z" transform="translate(-651.5 -329.28)"/><path class="cls-22" d="M1302.8,555.71l2,2.33c-2,2.26-2.32,5.83-5.62,7.05l-3.81-.06c-.14-.37-.28-.74-.43-1.11.43-2.57,2.7-3.76,4.17-5.56C1300.12,557.2,1301.12,556,1302.8,555.71Z" transform="translate(-651.5 -329.28)"/><path class="cls-23" d="M1206.32,478.39c-.63-1.32-1.25-2.64-1.87-4l1.7-1.73,5.57,1.84c1.23,1.3,1,2.61,0,3.92C1209.91,479.71,1208.1,479.91,1206.32,478.39Z" transform="translate(-651.5 -329.28)"/><path class="cls-24" d="M1190,516.26l-3.38,1.94.51-9.06Q1188.55,512.71,1190,516.26Z" transform="translate(-651.5 -329.28)"/><path class="cls-24" d="M1186.71,521.38l1.56,2a2.72,2.72,0,0,1,.19,3.67l-.57,3.76C1185.8,527.9,1186.07,524.66,1186.71,521.38Z" transform="translate(-651.5 -329.28)"/><path class="cls-25" d="M1271.75,575.88c-9.51,3.68-19.41,1.07-29.1,1.75-2.66-2.23-8.82.94-8.85-3.88,0-5.16,6.13-4.43,9.68-6.14a8.86,8.86,0,0,1,2.76-.24c5,2.42,10.07,2.61,15.5,1.5,4.59-.93,9.6-1.75,12.3,3.89C1274.26,574.52,1272.79,575,1271.75,575.88Z" transform="translate(-651.5 -329.28)"/><path class="cls-26" d="M1244.49,568.63l-9.52,4.56c.88,4.3,6.16,1.23,7.68,4.44l-10.94.06c-3.58-.26-5.52-2.69-7.2-5.45,3.09-4.64,9.26-2.7,13-6C1240.18,566,1242.66,566.4,1244.49,568.63Z" transform="translate(-651.5 -329.28)"/><path class="cls-22" d="M1271.75,575.88l1.81-1.84a5.82,5.82,0,0,1,4.68-3.6c3.73-.24,6.57-2.2,9.11-4.73a8.94,8.94,0,0,1,4.5-2.08,4.21,4.21,0,0,1,3.46,1.34l0,.06C1289.45,572.87,1281.45,576.22,1271.75,575.88Z" transform="translate(-651.5 -329.28)"/><path class="cls-22" d="M1244.49,568.63a12.36,12.36,0,0,1-7.26-1.82l-1.32-.12c-2.09-1.13-4.28-2.23-1.26-4.71,6.79-2.21,13.71.52,20.52-.58.43-.07,2.25,2.35,1.59-.61.69-2.68,2.93-2.94,5.1-3.31,10.56,2.66,16.93-5.14,24.49-9.85,2-1.23,3.23-3.51,5.74-4,1.92-.27,3.69-.05,5.05,1.51,0,1.2,0,2.41,0,3.61-1.93,1.91-4,3.68-5.77,5.76s-3.87,3.75-4.86,6.36a12.1,12.1,0,0,1-1.12,2.14,5.12,5.12,0,0,1-2,1.46c-9.76-.21-18.23,6.95-28.61,4.59-3-.69-6.82-2.55-10.3-.41Z" transform="translate(-651.5 -329.28)"/><path class="cls-27" d="M1306.78,514.45c-.18,1.16-.35,2.33-.53,3.49-1,2-2.94,3.44-3.84,5.56-.89,1.54-2.05,2.66-4,2.63a5.07,5.07,0,0,1-4-3.4c2.33-6.16,2-14.64,12.27-13.84C1308,510.73,1307.28,512.59,1306.78,514.45Z" transform="translate(-651.5 -329.28)"/><path class="cls-28" d="M1301.25,521.58c.49-2.81,2.62-3.4,5-3.64,6.87,3.3.82,8.46,1.83,12.6-1.27.93-2.26.17-3.26-.53C1301.49,528.1,1301.77,524.67,1301.25,521.58Z" transform="translate(-651.5 -329.28)"/><path class="cls-29" d="M1307.89,532.35c-1.58,4-3.1,8.19-8.9,5.71-3,.62-4.11-1.21-4.92-3.54a5,5,0,0,1,.9-3.78,3.6,3.6,0,0,1,3.48-.86c1.1,3.74,2.74-.53,4,.26A28.41,28.41,0,0,0,1307.89,532.35Z" transform="translate(-651.5 -329.28)"/><path class="cls-21" d="M1295.29,534.32l3.7,3.74c-.27,2.44.79,5.23-1.85,7.05h-5.43a5.72,5.72,0,0,1-1.73-3.8C1290.49,538,1290.65,534.49,1295.29,534.32Z" transform="translate(-651.5 -329.28)"/><path class="cls-30" d="M1289.89,554.16c1.34-3.24,3-6.1,7.26-5.44,0,.6,0,1.21,0,1.82a2.17,2.17,0,0,1,.62,1.48c0,.56-.06.83-.16.84-1.37,2.33-3.18,4-6.11,4C1290.26,556.39,1289.17,555.82,1289.89,554.16Z" transform="translate(-651.5 -329.28)"/><path class="cls-31" d="M1297.15,552.34c0-.6,0-1.2,0-1.8l4-1.71,1.59,6.88c-.69,1.29-1.37,2.58-2,3.87a1.69,1.69,0,0,1-2.27.17C1296.74,557.51,1296.91,554.93,1297.15,552.34Z" transform="translate(-651.5 -329.28)"/><path class="cls-32" d="M1311.94,505.25l1.26,3.54-3.25.37c-1.5.6-2.35-.31-3.14-1.35a7.37,7.37,0,0,1-2-5.95,5,5,0,0,1,1.2-2.25c4.65-.71,4.24,3.18,5.29,5.75Z" transform="translate(-651.5 -329.28)"/><path class="cls-33" d="M1308,507.2c.64.65,1.29,1.3,1.93,2a6.08,6.08,0,0,1-3.17,5.29L1306,509C1305.81,507.41,1306.3,506.63,1308,507.2Z" transform="translate(-651.5 -329.28)"/><path class="cls-34" d="M1307.89,532.35c-2,.69-4.59,3.57-4.86-1.44.36-1.75.93-3.16,3.12-1.88l1.93,1.51C1308,531.14,1308,531.75,1307.89,532.35Z" transform="translate(-651.5 -329.28)"/><path class="cls-35" d="M1220.88,467.35c-1.07-2-1.08-3.56,1.71-3.89,11.32-3.33,22.11-10.15,34.68-5.16-6.19,4-12.07,8.69-19.78,9.6-3.35,0-6.47,1.41-9.79,1.61C1225.18,469.54,1222.72,469.43,1220.88,467.35Z" transform="translate(-651.5 -329.28)"/><path class="cls-36" d="M1266.23,458.36c1.35,2,3.49,1.72,5.49,1.86,1,2.74-.1,4.77-2.12,6.54a24.68,24.68,0,0,1-20.08-1c-1.63-4.47,2.1-4.53,4.64-5.72,3.31-1.56,7.12.29,10.33-1.65Z" transform="translate(-651.5 -329.28)"/><path class="cls-37" d="M1264.49,458.36c-4.17,3.82-12.2-.18-14.63,7.17-1.23,2.15-3.31,3-5.56,3.52a10.65,10.65,0,0,1-2.76.21c-2-.62-5-.2-4-3.84,7.77.9,11.94-8.08,19.73-7.12Z" transform="translate(-651.5 -329.28)"/><path class="cls-38" d="M1199,525.28c-.9-3.07-7.82-1.49-5.5-7.06l1.94-3.85a1.9,1.9,0,0,1,2,.13c1.45,1.08.59,4.82,4.11,3.51a14.58,14.58,0,0,1,3.89,5.94c.16,1.89-.43,3.32-2.4,3.91A3.92,3.92,0,0,1,1199,525.28Z" transform="translate(-651.5 -329.28)"/><path class="cls-39" d="M1197.05,514.42a11.77,11.77,0,0,0-1.57,0c-1.79-4,3.18-6.94,1.76-10.9-.66-1.87.49-2.14,1.93-2.16,6.89,4.76,5.41,9-.83,12.95Z" transform="translate(-651.5 -329.28)"/><path class="cls-40" d="M1199.08,501.7l-1.84,1.77c-2.13-1.3-1.7-3.44-1.79-5.41,0-1.19,0-2.38,0-3.57a3.14,3.14,0,0,1,3.85-.4,5.74,5.74,0,0,1,1.46,3.87A4.9,4.9,0,0,1,1199.08,501.7Z" transform="translate(-651.5 -329.28)"/><path class="cls-41" d="M1216.85,559.53c-6.31-5.85-2.78-15.61-8.65-21.63,0-2.77-4.58-2.85-3.7-6.17a7.91,7.91,0,0,1,3.11-6.85,3.44,3.44,0,0,1,2.58,0c.55,2.73.88,2.84,3,1.13a2.81,2.81,0,0,1,1.66-.3,3.76,3.76,0,0,1,3.63,3.24c.86,9.55-.14,19.11.06,28.68A3.38,3.38,0,0,1,1216.85,559.53Z" transform="translate(-651.5 -329.28)"/><path class="cls-42" d="M1216.85,559.53a1.49,1.49,0,0,0,.54-1.45,7.61,7.61,0,0,1,3.09-3.74c3.16-.79,6.56-2.58,8.57,1.88a6.53,6.53,0,0,1-2.25,4.45c-2.33,1.52-4.06,4.83-7.67,2.6l-2.42-2A4,4,0,0,0,1216.85,559.53Z" transform="translate(-651.5 -329.28)"/><path class="cls-43" d="M1206.33,532.4c.25,1-.09,2.51,1.71,2.4,1.19-.07,2.71-2.5,3.44,0,.65,2.21-1.35,2.93-3.28,3.13a2.75,2.75,0,0,0-1.81,2.78,1.35,1.35,0,0,1-2,1.13,5.36,5.36,0,0,1-1.47-2.33,8.27,8.27,0,0,1,.91-6.77A1.77,1.77,0,0,1,1206.33,532.4Z" transform="translate(-651.5 -329.28)"/><path class="cls-11" d="M1204.85,540.9a3.14,3.14,0,0,0,1.54-.23c2.62,3.44,4.48,7.11,3.4,11.62-.53,0-1,.07-1.58.12C1205.37,549.07,1202.73,545.67,1204.85,540.9Z" transform="translate(-651.5 -329.28)"/><path class="cls-44" d="M1219.05,570.44c-4.28,1.54-2.86-2.44-3.92-4,0-.38,0-.76,0-1.14C1219.15,564.91,1216.94,569.32,1219.05,570.44Z" transform="translate(-651.5 -329.28)"/><path class="cls-45" d="M1220.88,467.35l7.32.1c9.5,1.26,9.72,1.61,5.16,9.9a16.84,16.84,0,0,0-2.23,6.74c-.42,2.21-1.12,4.27-3.12,5.62-3.29,1-4.85-1.1-6.22-3.5-1-2.2-1.19-4.65-2.07-6.89-.65-1.74-2-3.17-2.33-5.05A9.43,9.43,0,0,1,1220.88,467.35Z" transform="translate(-651.5 -329.28)"/><path class="cls-46" d="M1217.39,474.27c2,.43,3.72,1.13,3.74,3.59.79,1.7.87,3.26-.82,4.5-3.4.91-5.42-1.55-7.79-3.15l-.69-1c0-1.21-.07-2.42-.11-3.63C1213.55,473.12,1215.46,473.36,1217.39,474.27Z" transform="translate(-651.5 -329.28)"/><path class="cls-47" d="M1219.13,563.27l7.2-3.7c2.05-.88,2.78.82,3.82,1.94,1.41,3,4.12,4.32,7.08,5.3h0c-2.64,5.52-8,4.67-12.72,5.43C1222.19,569.57,1219.51,567.11,1219.13,563.27Z" transform="translate(-651.5 -329.28)"/><path class="cls-48" d="M1204.85,540.9c.64,4,3.91,7.19,3.36,11.51-.06,1.16-.13,2.32-.19,3.48-5.36,2.12-4.6-3.75-7.1-5.37-2-2.28-2.49-5.65-5.42-7.22-4.06-4.67-.16-12.76-7-16.22-.06-1.22-.13-2.45-.19-3.67,5-.12,6.66,4,9,7.18l1,.69c2,1.61.75,5.47,4.24,6.05,1,.54,1.29,1.64,2.07,2.34A1.63,1.63,0,0,1,1204.85,540.9Z" transform="translate(-651.5 -329.28)"/><path class="cls-49" d="M1195.5,543.3c4.27.57,4.78,4,5.42,7.22q-2.73-2.71-5.44-5.44C1195.47,544.49,1195.48,543.89,1195.5,543.3Z" transform="translate(-651.5 -329.28)"/><path class="cls-50" d="M1302.55,482c1.21,2.35,2.42,4.71,3.64,7.06-.45,2.08,1.71,4.58-1,6.31-3,1.2-5.56-.17-8.19-1.25a36.07,36.07,0,0,1-4.52-2.17c-1.92-1.31-2.58-3.31-3-5.44-.12-4.54-2.14-9.08,0-13.63,2-1.17,3.2-.15,4.18,1.5Z" transform="translate(-651.5 -329.28)"/><path class="cls-51" d="M1293.58,474.39l-3.66-1.24c-2,1.67-4,3.14-6.81,2.9a6.12,6.12,0,0,1-2.33-.85,4,4,0,0,1-1-2.14c.45-3.17,3.54-4.75,4.63-7.53l5.17.37C1291,468.71,1296.1,469.79,1293.58,474.39Z" transform="translate(-651.5 -329.28)"/><path class="cls-52" d="M1199.05,494.51l-3.56,0,3.6-10.84,7.23-5.27,5.51-.21-.12.28c1.54,1.41,1.55,3.05.74,4.82a7.1,7.1,0,0,1-3,2.33C1204.5,486.83,1202,490.9,1199.05,494.51Z" transform="translate(-651.5 -329.28)"/><path class="cls-53" d="M1284.45,465.53c2.81,4.42-2.21,4.89-3.66,7.16-1.31.77-2.21,0-3.1-.81-1.51-2.21-3.26-4.16-6-4.85a4.73,4.73,0,0,1-1.74-1.49l1.8-5.32A26.46,26.46,0,0,1,1284.45,465.53Z" transform="translate(-651.5 -329.28)"/><path class="cls-54" d="M1311.35,505.36c-1.92-1.6-2.27-4.64-5.06-5.43-1.36-2-.12-3.74.61-5.53a3.09,3.09,0,0,1,1.24-1.89,7.5,7.5,0,0,1,1.53.4C1311.09,497,1313.82,500.81,1311.35,505.36Z" transform="translate(-651.5 -329.28)"/><path class="cls-55" d="M1204.6,539.67l-2-1.72c-3.26-1.37-3.09-5.21-5.31-7.33v0q.87-2.65,1.72-5.31l3.72,1.71c2,1.36,3.51,2.92,1.92,5.53Z" transform="translate(-651.5 -329.28)"/><path class="cls-56" d="M1308.14,492.51c0,.65-.07,1.31-.1,2-.32.22-.63.45-.94.68l-.91-.72c-.47-1.79-2.81-3.57,0-5.36Z" transform="translate(-651.5 -329.28)"/><path class="cls-57" d="M1298.94,559.56l1.81,0-5.44,5.39-3.61,0C1291.69,560,1293.74,557.71,1298.94,559.56Z" transform="translate(-651.5 -329.28)"/><path class="cls-26" d="M1244.5,568.62c1.31-.59,2.59-1.63,3.93-1.71,9.25-.54,18.74,1.33,27.38-4.34,1.9-1.26,5.68.33,8.59.6,1.21,4.74-3.09,6.24-5.31,9l-5.53,1.9c-2.49-4.84-7.11-4.36-10.84-3.13C1256.05,573.11,1250.2,572.38,1244.5,568.62Z" transform="translate(-651.5 -329.28)"/><path class="cls-58" d="M1298.94,559.56c-3.66.18-5.65,2.55-7.24,5.45l-3.6,1.82c-4.68.51-1.47-4.24-3.63-5.41,0-.61,0-1.22,0-1.83,2.13-1.79,5.11-1.87,7.25-3.62l5.44-3.63C1299.79,554.24,1298.72,557.06,1298.94,559.56Z" transform="translate(-651.5 -329.28)"/><path class="cls-59" d="M1284.47,561.42l3.63,5.4c-1.93,3.58-4.61,5.9-9,5.33-.29-4.21,4.15-5.63,5.31-9C1284.43,562.59,1284.45,562,1284.47,561.42Z" transform="translate(-651.5 -329.28)"/><path class="cls-60" d="M1291.69,541.5c0,1.21,0,2.41,0,3.62-8.4,7.38-15.62,17.12-29.06,14.43a3.71,3.71,0,0,1-.79-3.81c1.73-2.89,3.88-5,7.66-4.11,1.19-.71-.21,2.73,2,1.07C1277.69,548.05,1282.94,541.59,1291.69,541.5Z" transform="translate(-651.5 -329.28)"/><path class="cls-61" d="M1228.15,563.19c-.06-1.48-.37-2.84-1.82-3.62.6-1.21,1.21-2.41,1.82-3.61,8.19-3.82,15.47,2.41,23.35,2a12,12,0,0,1,5.74,3.38,4.24,4.24,0,0,1,.89.15c.95.38,1.39,1.3.21,1.52-8.22,1.49-16.48,0-24.73.15A4.38,4.38,0,0,1,1228.15,563.19Z" transform="translate(-651.5 -329.28)"/><path class="cls-62" d="M1257.24,561.39c-2,0-4.17.34-5.5-1.8a1.37,1.37,0,0,1-.51-1.34c.12-.48.24-.71.37-.71,2.28.83,3.52-.06,3.93-2.36a7.11,7.11,0,0,1,2.39-.88c1.82-.12,3.5.14,4.73,1.66v3.59C1260.68,559.68,1258.52,559.24,1257.24,561.39Z" transform="translate(-651.5 -329.28)"/><path class="cls-57" d="M1291.71,556c-.59,4.82-4.39,3.28-7.25,3.62a11.2,11.2,0,0,1,5.43-5.43Z" transform="translate(-651.5 -329.28)"/><path class="cls-26" d="M1228.15,563.19l5.46,0,3.62,3.6C1233.68,566.91,1230.5,566.09,1228.15,563.19Z" transform="translate(-651.5 -329.28)"/><path class="cls-63" d="M1297.16,492.67l9,1.76,0,.06c1.49,2.4-2.69,4.78,0,7.18q.91,2.76,1.81,5.53l-2,1.79c-6.46,2.66-7.67,9.16-10.6,14.4l-1,.6c-2.32.24-4.66.17-7,.25a3,3,0,0,1-1.93-1.3c-.92-3.32,1-5.27,3.38-7,1.91-.84,4.35-.87,5.21-3.38,3.29-5.13,7.34-10.13,2.11-16.34A3.59,3.59,0,0,1,1297.16,492.67Z" transform="translate(-651.5 -329.28)"/><path class="cls-64" d="M1306.15,529l-3.12,1.88c-1.3-1.07-3.34,5.27-4.18-.41-1.23-1.83-1.56-3.56.54-5l1.86-3.89Q1303.71,525.3,1306.15,529Z" transform="translate(-651.5 -329.28)"/><path class="cls-65" d="M1299.39,525.47l-.54,5-3.45.09c-.32-.31-.63-.62-1-.92-1-2.16-1.15-4.24.65-6.12l.34-.16Z" transform="translate(-651.5 -329.28)"/><path class="cls-62" d="M1291.69,541.5a173.85,173.85,0,0,0-20.34,13.84c-2.18,1.66-.64-2.06-1.44-3a3.47,3.47,0,0,1-1-2.25,5.37,5.37,0,0,1,.9-2.34c6.64-4.93,13.06-10.06,16.57-17.87a5.81,5.81,0,0,1,1.85-1.53c2.86-.78,6.09-2.66,7,2.32l.15-.08c0,1.24-.07,2.48-.11,3.73A10,10,0,0,0,1291.69,541.5Z" transform="translate(-651.5 -329.28)"/><path class="cls-66" d="M1306.21,501.67c-3.35-2.41-.85-4.79,0-7.18l1.8,0q-.88,2.73-1.75,5.46C1306.26,500.51,1306.24,501.09,1306.21,501.67Z" transform="translate(-651.5 -329.28)"/><path class="cls-67" d="M1230.37,483.84c-3.67-2.47-1.09-5.42.44-6.75,6.27-5.42,2.9-7.69-2.61-9.64,3.17-.39,5.84-3.05,9.33-2,1.07,2.22,3.25,1.65,5.06,2,1.28,5.28-1.92,9.15-4.18,13.33C1236.13,482.81,1234.16,485.69,1230.37,483.84Z" transform="translate(-651.5 -329.28)"/><path class="cls-68" d="M1279,471l1.81,1.7.12,2a1.71,1.71,0,0,1-.11,2.17c-3.16,2.16-5.23-.85-7.78-1.57-1.88-.09-3.69.61-5.57.51-3.42-.83-7,0-10.39-.83-1.17-1-1.67-2.5-2.45-3.76-2.63-2.34-5.83.15-8.6-1-1.16-.61-2.09-1.33-1.46-2.85l5.31-1.86h20.06l1.79,0C1274.07,467.46,1276.56,469.18,1279,471Z" transform="translate(-651.5 -329.28)"/><path class="cls-69" d="M1244.55,467.39l2.15,2c2.08,1.24,3.12,3,2.64,5.44-1.65,3.86-5.08,5.85-8.43,7.92a4.63,4.63,0,0,1-3.9-.53,1.54,1.54,0,0,1,.13-2.36l5.45-12.41Z" transform="translate(-651.5 -329.28)"/><path class="cls-70" d="M1204.39,523.68a7.81,7.81,0,0,1-3.67-5.46,5.42,5.42,0,0,1,1.67-4.31,4.05,4.05,0,0,1,3.36-.39,2.7,2.7,0,0,1,1.36,1.69,27.92,27.92,0,0,0,.44,5.47,4.25,4.25,0,0,1-1,3.19A2,2,0,0,1,1204.39,523.68Z" transform="translate(-651.5 -329.28)"/><path class="cls-71" d="M1204.39,523.68l2-.26a2.25,2.25,0,0,1,1.89,1.85,11.42,11.42,0,0,0-1.92,7.13q-.82.09-1.65.12l-1.92-5.53A3.08,3.08,0,0,0,1204.39,523.68Z" transform="translate(-651.5 -329.28)"/><path class="cls-72" d="M1202.7,514.4c0,1.62-.39,3-2,3.82-4,1.36-3.67-1.36-3.67-3.8l.19-.32C1199.12,513.22,1201,512.7,1202.7,514.4Z" transform="translate(-651.5 -329.28)"/><path class="cls-73" d="M1202.7,514.4l-5.46-.3c4.31-3.59,5.63-7.62,1.84-12.4l0-3.65a1.72,1.72,0,0,1,2.15-.23c1.6,1.8,2.63,4,4.26,5.82a11.39,11.39,0,0,1,2.46,7.08,4.21,4.21,0,0,1-1.83,3.29Z" transform="translate(-651.5 -329.28)"/><path class="cls-13" d="M1200.91,498.11l-1.8-.06-.06-3.54c-.53-6.59,4.44-8.61,9.11-10.88a3,3,0,0,1,.84,3.2c-1.39,2.16-3.75,3.76-3.8,6.69C1204.28,495.53,1204.56,498.65,1200.91,498.11Z" transform="translate(-651.5 -329.28)"/><path class="cls-74" d="M1220.45,555.78l-3.06,2.3c-2.15-9.74-1-19.49-.11-29.25,3.53-1.18,5.69,1.71,8.45,2.82,3.61,2.11,4.77,5.26,4,9.24-1,4.24-2.15,8.45-5.61,11.52C1222.63,553.25,1221.87,554.87,1220.45,555.78Z" transform="translate(-651.5 -329.28)"/><path class="cls-75" d="M1217.07,527.23c-.49-.09-1-.19-1.46-.3a6.79,6.79,0,0,1-1.63-1.87,24.12,24.12,0,0,1-1.52-6c2.21-4.87-.48-12.53,7.93-13.91,3.5,2.74,2.71,6.5,2.44,10.13a85.81,85.81,0,0,1-4.69,11.16Z" transform="translate(-651.5 -329.28)"/><path class="cls-76" d="M1213.6,519.77c2.13,1.31,1.78,3.44,1.84,5.44a4.9,4.9,0,0,1-5.52.23,5.89,5.89,0,0,0-1.67-.17l-1.89-1.85c0-1.22,0-2.44,0-3.66a5.26,5.26,0,0,1,3.68-2.45C1211.91,517.19,1212.66,518.61,1213.6,519.77Z" transform="translate(-651.5 -329.28)"/><path class="cls-77" d="M1224.25,532.8l-7-4-.21-1.6.37-.4c4.66-1.7,6.53.92,7.55,4.85Z" transform="translate(-651.5 -329.28)"/><path class="cls-43" d="M1209.92,525.44l5.52-.23c.07.57.12,1.14.17,1.72C1214,525.28,1209.86,533.33,1209.92,525.44Z" transform="translate(-651.5 -329.28)"/><path class="cls-60" d="M1220.45,555.78l2.13-3.48a8.87,8.87,0,0,1,9.65-3.38c7,1.75,14.42,2.85,19.53,8.84,0,.61,0,1.22,0,1.83-8.16.71-15.6-3.21-23.59-3.63C1225.62,554.13,1223,555.26,1220.45,555.78Z" transform="translate(-651.5 -329.28)"/><path class="cls-77" d="M1220.89,516.16c-.59-3.61,1.48-7.67-1.82-10.82l-.51-1a10.46,10.46,0,0,1,.5-3.29c.65-1.86-.17-3.51-.76-5.2a5.9,5.9,0,0,1,.24-2.29c1.66-2.68,1.58-6.25,4.35-8.33,1.71,1.2,2.07,4.3,5.13,3.59,1.35.15-.55,2.9,1.13,2,3.09-1.73,5.78-2.31,8.66.1,1,2.31.17,4.18-1.34,5.92-7.29,4.87-9.09,11.4-5.89,19.42,1.84,3.37,3.33,6.93,5.39,10.2a8.19,8.19,0,0,1,.74,2.24c0,2.77,2.34,3.74,4,5.25,1.41,1.24,3.59,2.54,1.35,4.89a8.75,8.75,0,0,1-7.23.51c-4.11-4.24-2.45,2.54-4.45,2.34a2.18,2.18,0,0,1-2.22-.14c.67-3.8-.53-6.75-4-8.7l.32-.41c.1-1,2.41-.84,1.52-1.39C1220.24,527.36,1221.4,521.51,1220.89,516.16Z" transform="translate(-651.5 -329.28)"/><path class="cls-78" d="M1237.24,490.88c-5.54-1-8.89,1.77-10.64,7.21-4-4.61,1.15-6.38,1.42-9.29l2.34-5,6.78-4,.09,1.94c1.5,1.8,4.27,2.51,4.59,5.33a4.78,4.78,0,0,1-2.3,4.2A2.07,2.07,0,0,1,1237.24,490.88Z" transform="translate(-651.5 -329.28)"/><path class="cls-79" d="M1222.89,485.21c-.33,3.45.56,7.4-3.74,9.28-1.34.8-2.16,0-3-.91-1.4-2.61-4.38-4.86-1.94-8.36a9.38,9.38,0,0,1,4.65-3.32c1.77-.78,2-2.43,2.24-4C1223.51,479.89,1222.59,482.69,1222.89,485.21Z" transform="translate(-651.5 -329.28)"/><path class="cls-80" d="M1218.89,481.9l-3.35,3.74a5.46,5.46,0,0,1-3.12-1.16l-.58-1c0-1.69-.09-3.38-.13-5.06C1215.28,477.17,1217,479.8,1218.89,481.9Z" transform="translate(-651.5 -329.28)"/><path class="cls-49" d="M1197.32,530.62c3.26,1.37,3.89,4.63,5.31,7.33-1.38,0-2.56,4.81-4.05.31C1197.77,535.84,1197.72,533.17,1197.32,530.62Z" transform="translate(-651.5 -329.28)"/><path class="cls-81" d="M1282.69,474.88l7.23-1.73,1.74,12.33c-1,1.48-2.06,2.76-4.13,1.81C1283.27,484.19,1285.31,478.63,1282.69,474.88Z" transform="translate(-651.5 -329.28)"/><path class="cls-56" d="M1297.16,492.67v3.61a6,6,0,0,1-4.18,2.87c-2.68.08-4.16-1.07-4-3.9.58-2.39,2.39-3.53,4.49-4.38C1295,490.9,1296.36,491.21,1297.16,492.67Z" transform="translate(-651.5 -329.28)"/><path class="cls-82" d="M1293.5,490.87a6.1,6.1,0,0,1-3.6,3.6l-1.21-.46a4.68,4.68,0,0,1-1.49-5.82c.29-.32.59-.63.89-.95l3.57-1.76C1291.78,487.45,1291.4,489.58,1293.5,490.87Z" transform="translate(-651.5 -329.28)"/><path class="cls-83" d="M1282.69,474.88c7.12,1.82,1.54,9.13,5.4,12.36l0,0a8.59,8.59,0,0,1-2.08,1.44c-5.44,1.17-10.85-1.45-16.29-.11a9.13,9.13,0,0,1-3.74-.4c-4.39-3.54-11.72-.37-15-6.48a3.66,3.66,0,0,1,2.22-2.93,9.21,9.21,0,0,1,2.49-.52c4.73.77,9.56,1.85,12.44-3.65l5.23-1.68c.73,4.69,3.2,5.69,7.23,3.37a4.37,4.37,0,0,0,.35-1.59A4.45,4.45,0,0,1,1282.69,474.88Z" transform="translate(-651.5 -329.28)"/><path class="cls-84" d="M1208.11,487.06c0-1.14,0-2.28.05-3.43l3.68-.12.07.08c.34,3.34,1,6.86-3.94,7.41A3.11,3.11,0,0,1,1208.11,487.06Z" transform="translate(-651.5 -329.28)"/><path class="cls-85" d="M1279,471c-3.3-.65-6.68-1.18-7.27-5.43C1276,464.86,1277.66,467.72,1279,471Z" transform="translate(-651.5 -329.28)"/><path class="cls-86" d="M1269.82,550.42l.09,1.92c-3.15-.26-4.75,2.59-7.26,3.62l-5.8-.18c-.51-1.8.4-3.19,1.29-4.6,1.24-1.76,2.6-3.37,4.88-3.79C1265.92,547,1268,548.43,1269.82,550.42Z" transform="translate(-651.5 -329.28)"/><path class="cls-86" d="M1228.21,541.5l1.74,0c5.3.45,8.72,6.91,14.88,4.61a8.34,8.34,0,0,1,2.34-.05,3.64,3.64,0,0,1,1.88,1.22c1.1,1.84,1.84,3.94,3.73,5.24a6.06,6.06,0,0,1,2.6,3.42c.12,3.19-1.59,2.82-3.62,1.85-6-2.09-12.07-4.07-18-6.31a13.27,13.27,0,0,0-11.15.85Q1225.4,546.9,1228.21,541.5Z" transform="translate(-651.5 -329.28)"/><path class="cls-87" d="M1255.38,555.91l-3.35-1.85a1.4,1.4,0,0,1,0-2.41c2.43-1.29,4.75-1.35,6.87.65-.69,1.16-1.38,2.32-2.06,3.48l-.75,0Z" transform="translate(-651.5 -329.28)"/><path class="cls-88" d="M1289.89,516.17c-1,2.54-4,4.12-3.62,7.32.6,2.18-.6,3.64-2.45,3.67-2.74,0-3.53-2.57-4.62-4.58-.85-2.43-2.33-4.56-3.42-6.88-3.31-6.06-4.38-13.57-12-16.8-2.66-1.13-2.82-3.68-.16-5.69,9.8-3,18.21-.28,25.72,6.17C1293.13,504.86,1293.69,510.45,1289.89,516.17Z" transform="translate(-651.5 -329.28)"/><path class="cls-89" d="M1280.83,521.6c1.8.68,1.33,7.78,5.44,1.89a15.5,15.5,0,0,1,1.67-.18c1.73,1.79,1.65,3.64.18,5.53H1288c-1.85,1.94-4.4,2.4-6.8,3.18-6.38,1.52-9.27,5.68-9.22,12.08a8.89,8.89,0,0,1-2,4.68c-.07.55-.14,1.09-.2,1.63l-7.58-2c-1.64-2.93.08-5.8.14-8.7a19,19,0,0,1,4-9.06,23.93,23.93,0,0,1,2.39-2.44c1.48-1.23,1.67-2.94,1.69-4.72a6.88,6.88,0,0,1,.57-2.19,6.6,6.6,0,0,1,2.55-2.45,7.77,7.77,0,0,1,2.38-.54C1278.35,518.27,1279.58,520,1280.83,521.6Z" transform="translate(-651.5 -329.28)"/><path class="cls-90" d="M1293.51,498.1c.79-1.46,2.15-1.78,3.65-1.82,6.48,3.08,5.39,7.51,2.19,12.29-1.31,1.95-2.68,3.86-4,5.79C1288.8,509.6,1291.76,503.78,1293.51,498.1Z" transform="translate(-651.5 -329.28)"/><path class="cls-91" d="M1293.51,498.1c.83,5.39-1.82,11.18,1.82,16.26-.43,4.74-3.09,2.8-5.44,1.81-.48-5.44,1.26-11.13-1.83-16.28a4.5,4.5,0,0,1-.58-5.25,1.55,1.55,0,0,1,2.41-.18h0C1290,496.82,1291.16,498,1293.51,498.1Z" transform="translate(-651.5 -329.28)"/><path class="cls-64" d="M1288.12,528.84l-.18-5.53c2.49-3.06,4.81-1.25,7.15.24.05,2.37.11,4.74.16,7.12C1293.54,527.47,1289.83,532.05,1288.12,528.84Z" transform="translate(-651.5 -329.28)"/><path class="cls-92" d="M1270,548.79l.24-5.53c3.27-4.4,6.42-8.92,10.53-12.64,1.91-2.62,4.74-1.53,7.24-1.77C1285.75,538.83,1279.22,545,1270,548.79Z" transform="translate(-651.5 -329.28)"/><path class="cls-93" d="M1268.1,474.61c0,12.42-7.57,5.66-12.74,5-1.72-2.53-.44-4,1.86-5A9.54,9.54,0,0,1,1268.1,474.61Z" transform="translate(-651.5 -329.28)"/><path class="cls-94" d="M1248.31,474.37q-.81-2.5-1.61-5c3.49-.35,6.89-4.32,10.48-.22-1.53,2.46-1.35,6.28-5.4,6.73A3.6,3.6,0,0,1,1248.31,474.37Z" transform="translate(-651.5 -329.28)"/><path class="cls-95" d="M1280.56,476.3c-2.58,3.16-6.63,1.19-9.28,3.7-1.73-3.86,1.8-4.81,2-7.08C1276.59,472.25,1276.83,478,1280.56,476.3Z" transform="translate(-651.5 -329.28)"/><path class="cls-96" d="M1251.76,474.6l5.42-5.46c0,1.8,0,3.61,0,5.42l-1.86,5.05-1.93-.17C1249.47,479,1248,477.71,1251.76,474.6Z" transform="translate(-651.5 -329.28)"/><path class="cls-93" d="M1251.76,474.6c-1.87,2.45,0,3.6,1.68,4.84l-2,1.93a4.81,4.81,0,0,1-1.31,1.9c-2.84,1-4.09,5-7.89,4.2-.68-1.85-1.68-3.61-1.43-5.69,1.34-3.62,5.32-4.59,7.47-7.41Z" transform="translate(-651.5 -329.28)"/><path class="cls-97" d="M1240.84,481.78c2.13,1.31,1.8,3.44,1.84,5.45a1.17,1.17,0,0,1-1.8,0c-1.15-1.87-4-2.61-3.65-5.47Z" transform="translate(-651.5 -329.28)"/><path class="cls-98" d="M1213.6,519.77l-3.78-1.64c-1.93.56-3-.33-3.43-2.11l-.24-2c0-1.12.1-2.25.16-3.37,1.63-1.7.7-4.76,3.19-6a9.64,9.64,0,0,1,2.18-1c2.73-.59,5.61-1.81,7.37,1.72h0C1214.84,509.25,1216.39,515.32,1213.6,519.77Z" transform="translate(-651.5 -329.28)"/><path class="cls-99" d="M1206.39,516l3.43,2.11c-.69,1.5-2,1.62-3.43,1.63C1204.6,518.51,1204.5,517.27,1206.39,516Z" transform="translate(-651.5 -329.28)"/><path class="cls-100" d="M1200.91,498.11l3.75-5.55,1.12.09c1.47.51,2.88,1.1,3.07,2.94a13,13,0,0,1-3.3,7.34l-1,.6C1200.87,503.35,1200.88,500.73,1200.91,498.11Z" transform="translate(-651.5 -329.28)"/><path class="cls-100" d="M1209.9,505.28c-1.2,1.79-2.4,3.57-3.59,5.36q-.9-3.56-1.78-7.11h0C1207.12,501.71,1208.73,502.85,1209.9,505.28Z" transform="translate(-651.5 -329.28)"/><path class="cls-101" d="M1208.11,487.06c.06,1.39.11,2.78.17,4.17-.37,2.83-1.82,2.69-3.71,1.34h.09C1202.72,488.8,1204.24,487.2,1208.11,487.06Z" transform="translate(-651.5 -329.28)"/><path class="cls-102" d="M1220.89,516.16c3.68,4.49.91,12.13,7.49,15.2-.9,1.72-2.51.83-3.81,1-1.63-2.82-3.71-5-7.13-5.56C1216.26,522.52,1218.63,519.36,1220.89,516.16Z" transform="translate(-651.5 -329.28)"/><path class="cls-103" d="M1237.24,490.88c.57,0,1.15-.07,1.73-.09a1.79,1.79,0,0,1,2.61.33c3.56,6.36-.51,12.56-.38,18.85a15.08,15.08,0,0,1-.69,2.82c-3,4.3-1.41,10.35-5.37,14.3-5.12-.91-2.6-7.62-7-9.09,4.5-4.2-1.49-10.15,2.67-14.85,1.66-1.88,2.37-5,4.57-6.86Z" transform="translate(-651.5 -329.28)"/><path class="cls-104" d="M1209.9,505.28l-5.35-1.76c.15-3.43,2.33-6,3.69-9,2.35-3.93,4.85-7.14,9.1-1.85l1.81,1.8c0,.54,0,1.08,0,1.63,1.11,1.76,0,3.07-.91,4.41a65.76,65.76,0,0,1-6.92,4.58A10,10,0,0,0,1209.9,505.28Z" transform="translate(-651.5 -329.28)"/><path class="cls-105" d="M1235.41,496.29c1.12.18,3.17,1,2.63,1.44-5.66,4.38-8.38,9.07-4.89,16.41,1,2-2.35,3.7-5,3.86C1227.13,509.62,1223.48,500.38,1235.41,496.29Z" transform="translate(-651.5 -329.28)"/><path class="cls-106" d="M1242.67,537.89c-1.63-3.66-9.06-2.8-7.21-9.17a11.88,11.88,0,0,1,7.44-2.64,5.12,5.12,0,0,1,2.6.85c4,3.28,5.83,7.2,3.6,12.29a3.73,3.73,0,0,1-3.68,1.49A3.64,3.64,0,0,1,1242.67,537.89Z" transform="translate(-651.5 -329.28)"/><path class="cls-107" d="M1246.31,547c-7.63,4.62-12-.56-16.36-5.49.29-2.18.61-4.36,2.7-5.71.32.7.65,1.41,1,2.11,3.33,4.37,10.53,1.29,13.25,6.85A2.2,2.2,0,0,1,1246.31,547Z" transform="translate(-651.5 -329.28)"/><path class="cls-108" d="M1243.35,527.63c-2.42,1.85-5.17,1.35-7.89,1.09a7,7,0,0,0-.32-1.63c.36-5.16-.87-10.72,3.78-14.79C1243.51,516.52,1243.33,522.1,1243.35,527.63Z" transform="translate(-651.5 -329.28)"/><path class="cls-109" d="M1246.29,545.11c-3.47-3.72-11.27.08-12.67-7.24l9.05,0,1.83,1.82C1246.54,541,1248.25,542.47,1246.29,545.11Z" transform="translate(-651.5 -329.28)"/><path class="cls-70" d="M1211.33,505.11c.78-3.1,3.77-3.73,5.94-5.27,2-.92,2.79.58,3.62,1.93l-1.84,3.56C1216.53,503.48,1213.9,505.56,1211.33,505.11Z" transform="translate(-651.5 -329.28)"/><path class="cls-110" d="M1220.89,501.77l-3.62-1.93,1.89-3.72C1223.59,496.83,1221.85,499.42,1220.89,501.77Z" transform="translate(-651.5 -329.28)"/><path class="cls-111" d="M1240.89,490.89l-1.92-.1,1.91-3.55h1.8c2.44-1.76,3.2-5.74,7.21-5.43a3.29,3.29,0,0,1,.92,3.39,11.27,11.27,0,0,1-1.16,2.2C1246,496.44,1246,496.44,1240.89,490.89Z" transform="translate(-651.5 -329.28)"/><path class="cls-112" d="M1217.34,492.69c-3.81-3.17-6.29.12-9.1,1.85-1.52-.1-2.94-.4-3.67-2,1.39-.05,2.84.11,3.71-1.34l3.63-7.64a3.83,3.83,0,0,1,3.63,2.05C1213,488.79,1218.1,490,1217.34,492.69Z" transform="translate(-651.5 -329.28)"/><path class="cls-56" d="M1289.89,494.46l-1.79,0c-1.77.47-2.57-.6-3.18-2a5.27,5.27,0,0,1,1.35-5.25h1.8A12,12,0,0,0,1289.89,494.46Z" transform="translate(-651.5 -329.28)"/><path class="cls-113" d="M1286.24,492.61l1.86,1.89c0,1.8,0,3.6,0,5.39-8-4.06-16.25-6.81-25.41-5.41q-7.82,6-12.87-2.44a5.8,5.8,0,0,1-.89-2.47c.36-3.42,2.95-4.14,5.69-4.69,3.61,2.22,8.27-.71,11.7,2.36h3.62C1275.74,487.85,1281.75,487.91,1286.24,492.61Z" transform="translate(-651.5 -329.28)"/><path class="cls-114" d="M1286.24,492.61l-16.34-5.36c5.46-3.45,10.91.8,16.37,0Z" transform="translate(-651.5 -329.28)"/><path class="cls-115" d="M1266.28,487.24c-4.32-.08-8.75.64-12.74-1.76a2.6,2.6,0,0,1-3.77-.15c0-1.18.09-2.35.13-3.53a6.65,6.65,0,0,0,1.57-.43C1255.18,486.4,1263.26,480.49,1266.28,487.24Z" transform="translate(-651.5 -329.28)"/><path class="cls-116" d="M1248.17,539.68c.89-4.9-1.15-8.75-4.38-12.18,6.21-3.47,10.56,4.77,10.58,5.3.32,8.27,4.77,2.5,7.35,2.45,1.39.55,1.79,1.7,1.06,2.81-2.24,3.41,1.4.81,1.63,1.64l-2.16,8.71-3.33,3.89h-6.66c-2.7-.83-2.49-3.81-4.06-5.48l0,0A6.42,6.42,0,0,1,1248.17,539.68Z" transform="translate(-651.5 -329.28)"/><path class="cls-117" d="M1248.2,546.83c2.68.86,3,3.4,4.06,5.48a4.94,4.94,0,0,0-.23,1.75C1248.35,552.91,1248,550,1248.2,546.83Z" transform="translate(-651.5 -329.28)"/><path class="cls-117" d="M1248.17,539.68q0,3.59,0,7.17l-1.91.1c0-.61,0-1.22,0-1.84q-.9-2.7-1.79-5.4Z" transform="translate(-651.5 -329.28)"/><path class="cls-118" d="M1262.64,536.08c-4.23-.28-3.76,5-7.54,6.14-2-6.23-3.34-13.16-11.3-14.73,0,0-.46.13-.45.14-3.87-4.42-3.09-10.18-4.43-15.33a4.75,4.75,0,0,1,.14-1.55c1.53-1.54,3.08-3.06,5.37-3.41,3.31-.57,6.37.53,9.41,1.35.3-.42,1.88,1.62,1.23-.73-.39-.5-.73-1-1.11-1.44-2.17-1.67-5.09-1.12-7.32-2.53-9-6.89,1.78-8.85,3.3-13.12,3.68,3.17,7.82,4.7,12.71,3.61.54,1,.95,2.82,1.62,2.92,11.11,1.69,11,10.92,12.91,18.76a2.43,2.43,0,0,1-2.16.33c-1.41-.48-1.41-.48-1.46,3.33l-1.73,1.82c-1.23,2.22-7.66-1.36-5.35,4.78C1266.11,530,1263.27,532.6,1262.64,536.08Z" transform="translate(-651.5 -329.28)"/><path class="cls-119" d="M1275.42,516.35a8,8,0,0,0,1.76-.19,5.58,5.58,0,0,1,3.65,5.44l-5.87-2C1274.4,518.39,1274.25,517.27,1275.42,516.35Z" transform="translate(-651.5 -329.28)"/><path class="cls-120" d="M1280.79,530.62c-1.68,5.73-4.39,10.61-10.54,12.64C1269.17,535.25,1273,531.31,1280.79,530.62Z" transform="translate(-651.5 -329.28)"/><path class="cls-121" d="M1262.64,536.08c-7.07-4.56,3-5.68,1.83-9.05.82-1.21,1.92-2.64,3.37-1.63,2,1.41,1.48,3.45.28,5.29q-1.86,4.5-3.71,9l-3.17,1.86C1260.29,539.37,1262.09,537.88,1262.64,536.08Z" transform="translate(-651.5 -329.28)"/><path class="cls-88" d="M1275.42,516.35l-.45,3.21c-.48.07-1,.16-1.41.26a25.15,25.15,0,0,0-1.83-1.89c-1.64-1.38-3.08-2.9-2.23-5.21a2.63,2.63,0,0,1,2-1.35C1274.61,511.54,1275.15,513.89,1275.42,516.35Z" transform="translate(-651.5 -329.28)"/><path class="cls-88" d="M1268.12,530.69c-.2-2.23.85-5.69-3.65-3.66-1.8-7.55,2.32-7.08,7.35-5.39a7.34,7.34,0,0,0-.21,1.62c-1.13,1.7.37,4.11-1.51,5.61Z" transform="translate(-651.5 -329.28)"/><path class="cls-119" d="M1270.1,528.87c-.09-2-.54-4.15,1.51-5.61C1272.51,525.5,1274.91,528.15,1270.1,528.87Z" transform="translate(-651.5 -329.28)"/><path class="cls-113" d="M1249.94,490.87c-.09,1.7.36,4-1.4,4.71-6.58,2.51-3.22,5.13-.35,7.87-.1.32-.2.65-.29,1-.64,1.09-2,1.59-2.36,2.9a3,3,0,0,1-.91,1.54l-5.57,1.89,1.83-19.86c8.21,6.59,3.73-4.91,7.24-5,1.79,1.24.07,3.74,1.81,5Z" transform="translate(-651.5 -329.28)"/><path class="cls-122" d="M1249.94,490.86c-2-1.16-1.78-3.13-1.81-5a3.73,3.73,0,0,1,1.65-.53l3.76.15C1252.42,487.33,1249.64,488.07,1249.94,490.86Z" transform="translate(-651.5 -329.28)"/><path class="cls-123" d="M1244.63,508.86a14.08,14.08,0,0,1-.14-1.72c1.56-1.43,3.64-1.66,5.52-2.35a6.7,6.7,0,0,1,5.39,2.34l-.06.12a2.31,2.31,0,0,1,.05,3.53Z" transform="translate(-651.5 -329.28)"/><path class="cls-113" d="M1255.4,507.13l-5.5-1.75c-1.84.59-2.23-.23-1.79-1.84l.08-.09C1250.37,505.1,1255.93,500.19,1255.4,507.13Z" transform="translate(-651.5 -329.28)"/><path class="cls-124" d="M1255.39,510.78c0-1.18,0-2.35-.05-3.53,1.48,1.08,4.84.62,4,3.55C1258.73,512.67,1256.74,511.11,1255.39,510.78Z" transform="translate(-651.5 -329.28)"/><path class="cls-125" d="M1248.11,503.54l1.79,1.84c-1.31,2.1-3.45,1.68-5.41,1.76C1243.67,503.92,1246.84,504.68,1248.11,503.54Z" transform="translate(-651.5 -329.28)"/><path class="cls-126" d="M1323,453a105.91,105.91,0,0,0-149.85,0" transform="translate(-651.5 -329.28)"/><path class="cls-126" d="M1340,425a129.32,129.32,0,0,0-183,0" transform="translate(-651.5 -329.28)"/><path class="cls-126" d="M1356,406a154.06,154.06,0,0,0-218,0" transform="translate(-651.5 -329.28)"/><path class="cls-126" d="M1378,387a186.57,186.57,0,0,0-264,0" transform="translate(-651.5 -329.28)"/></svg>